<svg width="211" height="150" viewBox="0 0 211 150" fill="none" xmlns="http://www.w3.org/2000/svg">
<path d="M208 0V100H47.7194V28.5689H62.2806V85.7067H193.421V14.2756H18.5792V85.7067H33.1403V100H4V0H208Z" fill="#212529"/>
<path d="M27.6319 125.4C27.6319 127.187 27.2185 128.813 26.3919 130.28C25.5652 131.72 24.3385 132.867 22.7119 133.72C21.1119 134.573 19.1652 135 16.8719 135H13.3519V144H4.47188V115.68H16.8719C20.3385 115.68 22.9919 116.56 24.8319 118.32C26.6985 120.08 27.6319 122.44 27.6319 125.4ZM15.8719 128C17.7119 128 18.6319 127.133 18.6319 125.4C18.6319 123.667 17.7119 122.8 15.8719 122.8H13.3519V128H15.8719ZM49.8084 139.72H40.3684L38.9684 144H29.6484L40.0084 115.68H50.2484L60.5684 144H51.2084L49.8084 139.72ZM47.6484 133.04L45.0884 125.16L42.5284 133.04H47.6484ZM78.0259 144L72.7059 133.84H72.6659V144H63.7859V115.68H76.9859C79.2793 115.68 81.2393 116.093 82.8659 116.92C84.4926 117.72 85.7059 118.827 86.5059 120.24C87.3326 121.627 87.7459 123.2 87.7459 124.96C87.7459 126.853 87.2126 128.533 86.1459 130C85.1059 131.467 83.5993 132.52 81.6259 133.16L87.7859 144H78.0259ZM72.6659 127.92H76.1859C77.0393 127.92 77.6793 127.733 78.1059 127.36C78.5326 126.96 78.7459 126.347 78.7459 125.52C78.7459 124.773 78.5193 124.187 78.0659 123.76C77.6393 123.333 77.0126 123.12 76.1859 123.12H72.6659V127.92ZM114.023 115.68V122.72H106.503V144H97.6228V122.72H90.1828V115.68H114.023ZM126.511 115.68V144H117.631V115.68H126.511Z" fill="#202124"/>
<path d="M140.602 137.28H149.162V144H131.722V115.68H140.602V137.28ZM166.956 144.28C164.29 144.28 161.836 143.653 159.596 142.4C157.383 141.147 155.623 139.413 154.316 137.2C153.01 134.987 152.356 132.493 152.356 129.72C152.356 126.947 153.01 124.453 154.316 122.24C155.623 120.027 157.383 118.307 159.596 117.08C161.836 115.827 164.29 115.2 166.956 115.2C169.623 115.2 172.063 115.827 174.276 117.08C176.49 118.307 178.236 120.027 179.516 122.24C180.823 124.453 181.476 126.947 181.476 129.72C181.476 132.493 180.823 134.987 179.516 137.2C178.236 139.413 176.476 141.147 174.236 142.4C172.023 143.653 169.596 144.28 166.956 144.28ZM166.956 136C168.716 136 170.076 135.44 171.036 134.32C171.996 133.173 172.476 131.64 172.476 129.72C172.476 127.773 171.996 126.24 171.036 125.12C170.076 123.973 168.716 123.4 166.956 123.4C165.17 123.4 163.796 123.973 162.836 125.12C161.876 126.24 161.396 127.773 161.396 129.72C161.396 131.64 161.876 133.173 162.836 134.32C163.796 135.44 165.17 136 166.956 136ZM208.12 115.68V122.72H200.6V144H191.72V122.72H184.28V115.68H208.12Z" fill="#F49200"/>
</svg>
